<?xml version="1.0" encoding="UTF-8"?>
<svg xmlns="http://www.w3.org/2000/svg" width="860" height="520" viewBox="0 0 860 520" role="img" aria-labelledby="title desc">
  <title id="title">Pulse-recovery width distribution</title>
  <desc id="desc">Line chart comparing before- and after-recovery width-bin percentages from data/133.xlsx.</desc>
  <style>
    text { font-family: Arial, Helvetica, DejaVu Sans, sans-serif; fill: #1f1f1f; }
    .title { font-size: 18px; font-weight: 700; }
    .subtitle { font-size: 12px; fill: #555; }
    .axis { font-size: 12px; font-weight: 700; }
    .tick { font-size: 10px; fill: #444; }
    .legend { font-size: 12px; }
  </style>
  <rect width="100%" height="100%" fill="white" />
  <text x="78" y="27" class="title">Pulse-recovery crack-width distribution</text>
  <text x="78" y="45" class="subtitle">Export-count sheet; line chart selected for a two-condition binned table</text>
  <line x1="78" y1="402.00" x2="826" y2="402.00" stroke="#e7e7e7" stroke-width="1" /><text x="68" y="406.00" text-anchor="end" class="tick">0</text><line x1="78" y1="333.20" x2="826" y2="333.20" stroke="#e7e7e7" stroke-width="1" /><text x="68" y="337.20" text-anchor="end" class="tick">10</text><line x1="78" y1="264.40" x2="826" y2="264.40" stroke="#e7e7e7" stroke-width="1" /><text x="68" y="268.40" text-anchor="end" class="tick">20</text><line x1="78" y1="195.60" x2="826" y2="195.60" stroke="#e7e7e7" stroke-width="1" /><text x="68" y="199.60" text-anchor="end" class="tick">30</text><line x1="78" y1="126.80" x2="826" y2="126.80" stroke="#e7e7e7" stroke-width="1" /><text x="68" y="130.80" text-anchor="end" class="tick">40</text><line x1="78" y1="58.00" x2="826" y2="58.00" stroke="#e7e7e7" stroke-width="1" /><text x="68" y="62.00" text-anchor="end" class="tick">50</text>
  <line x1="78" y1="58" x2="78" y2="402" stroke="#222" stroke-width="1.2" />
  <line x1="78" y1="402" x2="826" y2="402" stroke="#222" stroke-width="1.2" />
  <line x1="78.00" y1="402" x2="78.00" y2="407" stroke="#333" stroke-width="1" /><text x="78.00" y="420" text-anchor="end" transform="rotate(-45 78.00,420)" class="tick">1以下</text><line x1="115.40" y1="402" x2="115.40" y2="407" stroke="#333" stroke-width="1" /><text x="115.40" y="420" text-anchor="end" transform="rotate(-45 115.40,420)" class="tick">1-2</text><line x1="152.80" y1="402" x2="152.80" y2="407" stroke="#333" stroke-width="1" /><text x="152.80" y="420" text-anchor="end" transform="rotate(-45 152.80,420)" class="tick">2-3</text><line x1="190.20" y1="402" x2="190.20" y2="407" stroke="#333" stroke-width="1" /><text x="190.20" y="420" text-anchor="end" transform="rotate(-45 190.20,420)" class="tick">3-4</text><line x1="227.60" y1="402" x2="227.60" y2="407" stroke="#333" stroke-width="1" /><text x="227.60" y="420" text-anchor="end" transform="rotate(-45 227.60,420)" class="tick">4-5</text><line x1="265.00" y1="402" x2="265.00" y2="407" stroke="#333" stroke-width="1" /><text x="265.00" y="420" text-anchor="end" transform="rotate(-45 265.00,420)" class="tick">5-6</text><line x1="302.40" y1="402" x2="302.40" y2="407" stroke="#333" stroke-width="1" /><text x="302.40" y="420" text-anchor="end" transform="rotate(-45 302.40,420)" class="tick">6-7</text><line x1="339.80" y1="402" x2="339.80" y2="407" stroke="#333" stroke-width="1" /><text x="339.80" y="420" text-anchor="end" transform="rotate(-45 339.80,420)" class="tick">7-8</text><line x1="377.20" y1="402" x2="377.20" y2="407" stroke="#333" stroke-width="1" /><text x="377.20" y="420" text-anchor="end" transform="rotate(-45 377.20,420)" class="tick">8-9</text><line x1="414.60" y1="402" x2="414.60" y2="407" stroke="#333" stroke-width="1" /><text x="414.60" y="420" text-anchor="end" transform="rotate(-45 414.60,420)" class="tick">9-10</text><line x1="452.00" y1="402" x2="452.00" y2="407" stroke="#333" stroke-width="1" /><text x="452.00" y="420" text-anchor="end" transform="rotate(-45 452.00,420)" class="tick">10以上</text><line x1="489.40" y1="402" x2="489.40" y2="407" stroke="#333" stroke-width="1" /><text x="489.40" y="420" text-anchor="end" transform="rotate(-45 489.40,420)" class="tick">11</text><line x1="526.80" y1="402" x2="526.80" y2="407" stroke="#333" stroke-width="1" /><text x="526.80" y="420" text-anchor="end" transform="rotate(-45 526.80,420)" class="tick">12</text><line x1="564.20" y1="402" x2="564.20" y2="407" stroke="#333" stroke-width="1" /><text x="564.20" y="420" text-anchor="end" transform="rotate(-45 564.20,420)" class="tick">13</text><line x1="601.60" y1="402" x2="601.60" y2="407" stroke="#333" stroke-width="1" /><text x="601.60" y="420" text-anchor="end" transform="rotate(-45 601.60,420)" class="tick">14</text><line x1="639.00" y1="402" x2="639.00" y2="407" stroke="#333" stroke-width="1" /><text x="639.00" y="420" text-anchor="end" transform="rotate(-45 639.00,420)" class="tick">15</text><line x1="676.40" y1="402" x2="676.40" y2="407" stroke="#333" stroke-width="1" /><text x="676.40" y="420" text-anchor="end" transform="rotate(-45 676.40,420)" class="tick">16</text><line x1="713.80" y1="402" x2="713.80" y2="407" stroke="#333" stroke-width="1" /><text x="713.80" y="420" text-anchor="end" transform="rotate(-45 713.80,420)" class="tick">17</text><line x1="751.20" y1="402" x2="751.20" y2="407" stroke="#333" stroke-width="1" /><text x="751.20" y="420" text-anchor="end" transform="rotate(-45 751.20,420)" class="tick">18</text><line x1="788.60" y1="402" x2="788.60" y2="407" stroke="#333" stroke-width="1" /><text x="788.60" y="420" text-anchor="end" transform="rotate(-45 788.60,420)" class="tick">19-20</text><line x1="826.00" y1="402" x2="826.00" y2="407" stroke="#333" stroke-width="1" /><text x="826.00" y="420" text-anchor="end" transform="rotate(-45 826.00,420)" class="tick">20以上</text>
  <polyline points="78.00,400.01 115.40,260.41 152.80,84.92 190.20,238.48 227.60,370.09 265.00,390.03 302.40,388.04 339.80,400.01 377.20,402.00 414.60,402.00 452.00,402.00 489.40,402.00 526.80,402.00 564.20,400.01 601.60,400.01 639.00,402.00 676.40,402.00 713.80,402.00 751.20,402.00 788.60,402.00 826.00,402.00" fill="none" stroke="#376795" stroke-width="2.2" stroke-linejoin="round" stroke-linecap="round" />
  <polyline points="78.00,384.05 115.40,150.73 152.80,174.66 190.20,330.21 227.60,354.14 265.00,384.05 302.40,396.02 339.80,390.03 377.20,396.02 414.60,390.03 452.00,402.00 489.40,390.03 526.80,402.00 564.20,402.00 601.60,402.00 639.00,402.00 676.40,402.00 713.80,402.00 751.20,396.02 788.60,402.00 826.00,402.00" fill="none" stroke="#d07f2c" stroke-width="2.2" stroke-linejoin="round" stroke-linecap="round" />
  <circle cx="78.00" cy="400.01" r="3.4" fill="white" stroke="#376795" stroke-width="1.8" /><circle cx="115.40" cy="260.41" r="3.4" fill="white" stroke="#376795" stroke-width="1.8" /><circle cx="152.80" cy="84.92" r="3.4" fill="white" stroke="#376795" stroke-width="1.8" /><circle cx="190.20" cy="238.48" r="3.4" fill="white" stroke="#376795" stroke-width="1.8" /><circle cx="227.60" cy="370.09" r="3.4" fill="white" stroke="#376795" stroke-width="1.8" /><circle cx="265.00" cy="390.03" r="3.4" fill="white" stroke="#376795" stroke-width="1.8" /><circle cx="302.40" cy="388.04" r="3.4" fill="white" stroke="#376795" stroke-width="1.8" /><circle cx="339.80" cy="400.01" r="3.4" fill="white" stroke="#376795" stroke-width="1.8" /><circle cx="377.20" cy="402.00" r="3.4" fill="white" stroke="#376795" stroke-width="1.8" /><circle cx="414.60" cy="402.00" r="3.4" fill="white" stroke="#376795" stroke-width="1.8" /><circle cx="452.00" cy="402.00" r="3.4" fill="white" stroke="#376795" stroke-width="1.8" /><circle cx="489.40" cy="402.00" r="3.4" fill="white" stroke="#376795" stroke-width="1.8" /><circle cx="526.80" cy="402.00" r="3.4" fill="white" stroke="#376795" stroke-width="1.8" /><circle cx="564.20" cy="400.01" r="3.4" fill="white" stroke="#376795" stroke-width="1.8" /><circle cx="601.60" cy="400.01" r="3.4" fill="white" stroke="#376795" stroke-width="1.8" /><circle cx="639.00" cy="402.00" r="3.4" fill="white" stroke="#376795" stroke-width="1.8" /><circle cx="676.40" cy="402.00" r="3.4" fill="white" stroke="#376795" stroke-width="1.8" /><circle cx="713.80" cy="402.00" r="3.4" fill="white" stroke="#376795" stroke-width="1.8" /><circle cx="751.20" cy="402.00" r="3.4" fill="white" stroke="#376795" stroke-width="1.8" /><circle cx="788.60" cy="402.00" r="3.4" fill="white" stroke="#376795" stroke-width="1.8" /><circle cx="826.00" cy="402.00" r="3.4" fill="white" stroke="#376795" stroke-width="1.8" /><circle cx="78.00" cy="384.05" r="3.4" fill="white" stroke="#d07f2c" stroke-width="1.8" /><circle cx="115.40" cy="150.73" r="3.4" fill="white" stroke="#d07f2c" stroke-width="1.8" /><circle cx="152.80" cy="174.66" r="3.4" fill="white" stroke="#d07f2c" stroke-width="1.8" /><circle cx="190.20" cy="330.21" r="3.4" fill="white" stroke="#d07f2c" stroke-width="1.8" /><circle cx="227.60" cy="354.14" r="3.4" fill="white" stroke="#d07f2c" stroke-width="1.8" /><circle cx="265.00" cy="384.05" r="3.4" fill="white" stroke="#d07f2c" stroke-width="1.8" /><circle cx="302.40" cy="396.02" r="3.4" fill="white" stroke="#d07f2c" stroke-width="1.8" /><circle cx="339.80" cy="390.03" r="3.4" fill="white" stroke="#d07f2c" stroke-width="1.8" /><circle cx="377.20" cy="396.02" r="3.4" fill="white" stroke="#d07f2c" stroke-width="1.8" /><circle cx="414.60" cy="390.03" r="3.4" fill="white" stroke="#d07f2c" stroke-width="1.8" /><circle cx="452.00" cy="402.00" r="3.4" fill="white" stroke="#d07f2c" stroke-width="1.8" /><circle cx="489.40" cy="390.03" r="3.4" fill="white" stroke="#d07f2c" stroke-width="1.8" /><circle cx="526.80" cy="402.00" r="3.4" fill="white" stroke="#d07f2c" stroke-width="1.8" /><circle cx="564.20" cy="402.00" r="3.4" fill="white" stroke="#d07f2c" stroke-width="1.8" /><circle cx="601.60" cy="402.00" r="3.4" fill="white" stroke="#d07f2c" stroke-width="1.8" /><circle cx="639.00" cy="402.00" r="3.4" fill="white" stroke="#d07f2c" stroke-width="1.8" /><circle cx="676.40" cy="402.00" r="3.4" fill="white" stroke="#d07f2c" stroke-width="1.8" /><circle cx="713.80" cy="402.00" r="3.4" fill="white" stroke="#d07f2c" stroke-width="1.8" /><circle cx="751.20" cy="396.02" r="3.4" fill="white" stroke="#d07f2c" stroke-width="1.8" /><circle cx="788.60" cy="402.00" r="3.4" fill="white" stroke="#d07f2c" stroke-width="1.8" /><circle cx="826.00" cy="402.00" r="3.4" fill="white" stroke="#d07f2c" stroke-width="1.8" />
  <text x="452.0" y="498" text-anchor="middle" class="axis">Width interval</text>
  <text x="18" y="230.0" text-anchor="middle" transform="rotate(-90 18,230.0)" class="axis">Share of observations (%)</text>
  <line x1="600" y1="31" x2="635" y2="31" stroke="#376795" stroke-width="2.4" />
  <circle cx="618" cy="31" r="3.4" fill="white" stroke="#376795" stroke-width="1.8" />
  <text x="645" y="35" class="legend">Before recovery (n=345)</text>
  <line x1="600" y1="50" x2="635" y2="50" stroke="#d07f2c" stroke-width="2.4" />
  <circle cx="618" cy="50" r="3.4" fill="white" stroke="#d07f2c" stroke-width="1.8" />
  <text x="645" y="54" class="legend">After recovery (n=115)</text>
</svg>
